<svg xmlns="http://www.w3.org/2000/svg" viewBox="0 0 70 70" id="1121930954" class="svg u_1121930954" data-icon-name="wp-bulb"> <g fill="#90c63d"> <path d="M42,50H28c-0.6,0-1,0.4-1,1s0.4,1,1,1h14c0.6,0,1-0.4,1-1S42.6,50,42,50z"></path> 
 <path d="M42,54H28c-0.6,0-1,0.4-1,1s0.4,1,1,1h2.1c0.5,2.3,2.5,4,4.9,4c2.4,0,4.4-1.7,4.9-4H42c0.6,0,1-0.4,1-1S42.6,54,42,54z"></path> 
 <path d="M35,10c-9.4,0-17,7.6-17,17c0,5.7,3,9.8,5.4,13.1c1.4,1.9,2.6,3.6,2.6,4.9v0.5c0,1.4,1.1,2.5,2.5,2.5h13
		c1.4,0,2.5-1.1,2.5-2.5V45c0-1.3,1.2-2.9,2.6-4.9C49,36.8,52,32.7,52,27C52,17.6,44.4,10,35,10z"></path> 
</g> 
</svg>